{"title":"Caligula 2 - The Untold Story DVD RIP (1982) Uncut Extended Vers","uid":9949794,"size":1879084541,"categoryP":"video","categoryS":"movies","magnet":"?xt=urn:btih:d6e4a48ae094b09caf7fd9d17c0d7efa4f4f924b&amp;dn=Caligula+2+-+The+Untold+Story+DVD+RIP+%281982%29+Uncut+Extended+Vers&amp;tr=udp%3A%2F%2Ftracker.openbittorrent.com%3A80&amp;tr=udp%3A%2F%2Fopen.demonii.com%3A1337&amp;tr=udp%3A%2F%2Ftracker.coppersurfer.tk%3A6969&amp;tr=udp%3A%2F%2Fexodus.desync.com%3A6969","seeders":2,"leechers":9,"uploader":"jmanwf","files":3,"time":1397381149,"description":"Description\nStoryline\n\nThe deranged Roman emperor Gainus 'Caligula' (Little Boots) Caesar (12-41 A.D.) rules Rome with an iron fist and has anyone tortured and executed for even the slightest insubordination. Mostly set during the last year of his reign, as Caligula loses support due to his brutal and crazed excess, a young Moor woman, named Miriam, becomes his lover while plotting to kill him to avenge the murder of a friend which Caligula was responsible for. But Miriam is torn between her personal vendetta against Caligula and her own personal feelings towards him despite his madness and debauched lifestyle of orgies and bloody torture\n\n\nFormat : MPEG-4\nFormat profile : Base Media\nCodec ID : isom\nFile size : 1.74 GiB\nDuration : 2h 5mn\nOverall bit rate mode : Variable\nOverall bit rate : 1 988 Kbps\nWriting application : HandBrake 6117svn 2014031701\n\nVideo\nID : 1\nFormat : AVC\nFormat/Info : Advanced Video Codec\nFormat profile : &lt;a class=&quot;__cf_email__&quot; href=&quot;/cdn-cgi/l/email-protection&quot; data-cfemail=&quot;622f030b0c222e564c52&quot;&gt;[email&amp;#160;protected]&lt;/a&gt;&lt;script cf-hash='f9e31' type=&quot;text/javascript&quot;&gt;\n/* &lt;![CDATA[ */!function(){try{var t=&quot;currentScript&quot;in document?document.currentScript:function(){for(var t=document.getElementsByTagName(&quot;script&quot;),e=t.length;e--;)if(t[e].getAttribute(&quot;cf-hash&quot;))return t[e]}();if(t&amp;&amp;t.previousSibling){var e,r,n,i,c=t.previousSibling,a=c.getAttribute(&quot;data-cfemail&quot;);if(a){for(e=&quot;&quot;,r=parseInt(a.substr(0,2),16),n=2;a.length-n;n+=2)i=parseInt(a.substr(n,2),16)^r,e+=String.fromCharCode(i);e=document.createTextNode(e),c.parentNode.replaceChild(e,c)}}}catch(u){}}();/* ]]&gt; */&lt;/script&gt;\nFormat settings, CABAC : Yes\nFormat settings, ReFrames : 4 frames\nCodec ID : avc1\nCodec ID/Info : Advanced Video Coding\nDuration : 2h 5mn\nBit rate : 1 659 Kbps\nWidth : 720 pixels\nHeight : 576 pixels\nDisplay aspect ratio : 16:9\nFrame rate mode : Constant\nFrame rate : 25.000 fps\nStandard : PAL\nColor space : YUV\nChroma subsampling : 4:2:0\nBit depth : 8 bits\nScan type : Progressive\nBits/(Pixel*Frame) : 0.160\nStream size : 1.45 GiB (83%)\nWriting library : x264 core 142 r2389 956c8d8\n\nColor primaries : BT.601 PAL\nTransfer characteristics : BT.709\nMatrix coefficients : BT.601\n\nAudio #1\nID : 2\nFormat : AAC\nFormat/Info : Advanced Audio Codec\nFormat profile : LC\nCodec ID : 40\nDuration : 2h 5mn\nBit rate mode : Variable\nBit rate : 160 Kbps\nChannel(s) : 2 channels\nChannel positions : Front: L R\nSampling rate : 48.0 KHz\nCompression mode : Lossy\nStream size : 143 MiB (8%)\nLanguage : English\n\nAudio #2\nID : 3\nFormat : AAC\nFormat/Info : Advanced Audio Codec\nFormat profile : LC\nCodec ID : 40\nDuration : 2h 5mn\nBit rate mode : Variable\nBit rate : 160 Kbps\nChannel(s) : 2 channels\nChannel positions : Front: L R\nSampling rate : 48.0 KHz\nCompression mode : Lossy\nStream size : 143 MiB (8%)\nLanguage : Italian\n\n &lt;a href=&quot;\nhttp://www.imdb.com/title/tt0082133/&quot; rel=&quot;nofollow&quot; target=&quot;_NEW&quot;&gt;\nhttp://www.imdb.com/title/tt0082133/&lt;/a&gt;\n\n\n\n &lt;a href=&quot;\nhttp://www.movie-censorship.com/report.php?ID=2018&quot; rel=&quot;nofollow&quot; target=&quot;_NEW&quot;&gt;\nhttp://www.movie-censorship.com/report.php?ID=2018&lt;/a&gt;\n\n\n\n\nRuntime: 2 Hours 5 Minutes","torrent":{"xt":"urn:btih:d6e4a48ae094b09caf7fd9d17c0d7efa4f4f924b","amp;dn":"Caligula+2+-+The+Untold+Story+DVD+RIP+%281982%29+Uncut+Extended+Vers","amp;tr":["udp%3A%2F%2Ftracker.openbittorrent.com%3A80","udp%3A%2F%2Fopen.demonii.com%3A1337","udp%3A%2F%2Ftracker.coppersurfer.tk%3A6969","udp%3A%2F%2Fexodus.desync.com%3A6969"],"infoHash":"d6e4a48ae094b09caf7fd9d17c0d7efa4f4f924b","infoHashBuffer":{"type":"Buffer","data":[214,228,164,138,224,148,176,156,175,127,217,209,124,13,126,250,79,79,146,75]},"announce":[],"urlList":[]}}